<svg width="193" height="48" viewBox="0 0 193 48" fill="none" xmlns="http://www.w3.org/2000/svg">
<path d="M117 16C117 13.8989 116.586 11.8183 115.782 9.87706C114.978 7.93586 113.799 6.17203 112.314 4.68629C110.828 3.20055 109.064 2.022 107.123 1.21793C105.182 0.413852 103.101 -9.18442e-08 101 0L101 16H117Z" fill="#231F20"/>
<path d="M101 32C101 34.1011 101.414 36.1817 102.218 38.1229C103.022 40.0641 104.201 41.828 105.686 43.3137C107.172 44.7994 108.936 45.978 110.877 46.7821C112.818 47.5861 114.899 48 117 48L117 32H101Z" fill="#231F20"/>
<path d="M101 32C101 34.1011 100.586 36.1817 99.7821 38.1229C98.978 40.0641 97.7994 41.828 96.3137 43.3137C94.828 44.7994 93.0641 45.978 91.1229 46.7821C89.1817 47.5861 87.1011 48 85 48L85 32H101Z" fill="#231F20"/>
<path d="M69 32C69 34.1011 69.4139 36.1817 70.2179 38.1229C71.022 40.0641 72.2006 41.828 73.6863 43.3137C75.172 44.7994 76.9359 45.978 78.8771 46.7821C80.8183 47.5861 82.8989 48 85 48L85 32H69Z" fill="#231F20"/>
<path d="M69 32C69 29.8989 69.4139 27.8183 70.2179 25.8771C71.022 23.9359 72.2006 22.172 73.6863 20.6863C75.172 19.2006 76.9359 18.022 78.8771 17.2179C80.8183 16.4139 82.8989 16 85 16L85 32H69Z" fill="#231F20"/>
<path d="M85 16C85 13.8989 85.4139 11.8183 86.2179 9.87706C87.022 7.93586 88.2006 6.17203 89.6863 4.68629C91.172 3.20055 92.9359 2.022 94.8771 1.21793C96.8183 0.413852 98.8989 -9.18442e-08 101 0L101 16H85Z" fill="#231F20"/>
<path d="M0 16C0 13.8989 0.413852 11.8183 1.21793 9.87706C2.022 7.93586 3.20055 6.17203 4.68629 4.68629C6.17203 3.20055 7.93586 2.022 9.87707 1.21793C11.8183 0.413852 13.8989 -9.18442e-08 16 0L16 16H0Z" fill="#231F20"/>
<path d="M32 16C32 13.8989 31.5861 11.8183 30.7821 9.87706C29.978 7.93586 28.7994 6.17203 27.3137 4.68629C25.828 3.20055 24.0641 2.022 22.1229 1.21793C20.1817 0.413852 18.1011 -9.18442e-08 16 0L16 16H32Z" fill="#231F20"/>
<path d="M32 16C32 13.8989 32.4139 11.8183 33.2179 9.87706C34.022 7.93586 35.2006 6.17203 36.6863 4.68629C38.172 3.20055 39.9359 2.022 41.8771 1.21793C43.8183 0.413852 45.8989 -9.18442e-08 48 0L48 16H32Z" fill="#231F20"/>
<path d="M48 16C48 18.1011 47.5861 20.1817 46.7821 22.1229C45.978 24.0641 44.7994 25.828 43.3137 27.3137C41.828 28.7994 40.0641 29.978 38.1229 30.7821C36.1817 31.5861 34.1011 32 32 32L32 16H48Z" fill="#231F20"/>
<path d="M16 16C16 18.1011 16.4139 20.1817 17.2179 22.1229C18.022 24.0641 19.2006 25.828 20.6863 27.3137C22.172 28.7994 23.9359 29.978 25.8771 30.7821C27.8183 31.5861 29.8989 32 32 32L32 16H16Z" fill="#231F20"/>
<rect x="142" width="16" height="16" fill="#231F20"/>
<rect x="150" width="16" height="16" fill="#231F20"/>
<rect x="158" y="32" width="8" height="16" fill="#231F20"/>
<rect x="126" y="32" width="16" height="16" fill="#231F20"/>
<path d="M142 32H166V48H142V32Z" fill="#231F20"/>
<rect x="175" y="24" width="16" height="24" fill="#231F20"/>
<rect x="154" y="24" width="12" height="24" fill="#231F20"/>
<rect x="181" y="16" width="4" height="8" fill="#231F20"/>
<rect x="134" y="8" width="16" height="16" fill="#231F20"/>
<rect x="126" y="16" width="16" height="16" fill="#231F20"/>
<rect x="48" width="16" height="16" fill="#231F20"/>
<rect x="48" y="16" width="16" height="16" fill="#231F20"/>
<rect x="48" y="32" width="16" height="16" fill="#231F20"/>
<rect y="16" width="16" height="16" fill="#231F20"/>
<rect y="32" width="16" height="16" fill="#231F20"/>
<rect x="101" y="16" width="16" height="16" fill="#231F20"/>
<circle cx="183" cy="10" r="10" fill="#231F20"/>
</svg>
